# 3ds Max Wavefront OBJ Exporter v0.97b - (c)2007 guruware
# File Created: 28.03.2018 16:14:56

mtllib cuerda.mtl

#
# object Box002
#

v  -7.3348 3.5413 -24.7497
v  -7.3348 2.9483 -24.7459
v  -7.3348 2.7903 -29.0473
v  -7.3348 3.7521 -29.0473
v  -8.3769 2.9483 -24.7459
v  -8.3768 3.5413 -24.7497
v  -8.3768 3.7521 -29.0473
v  -8.3769 2.7903 -29.0473
v  -7.3348 -1.8840 -19.8994
v  -7.3348 -1.0358 -19.5084
v  -8.3768 -1.0358 -19.5084
v  -8.3769 -1.8840 -19.8994
v  -7.3348 -1.1369 -34.4448
v  -7.3348 -1.6544 -33.7861
v  -8.3769 -1.6543 -33.7862
v  -8.3768 -1.1369 -34.4448
v  -7.3348 1.1077 -20.1652
v  -7.3348 0.6571 -20.4226
v  -7.3348 0.8077 -33.3826
v  -7.3348 1.3206 -33.7958
v  -8.3769 0.6571 -20.4226
v  -8.3768 1.1078 -20.1652
v  -8.3768 1.3207 -33.7958
v  -8.3769 0.8077 -33.3826
# 24 vertices

vn 1.0000 -0.0000 -0.0000
vn 1.0000 -0.0000 -0.0001
vn 1.0000 -0.0000 0.0001
vn 1.0000 -0.0000 0.0000
vn -1.0000 0.0000 0.0001
vn -1.0000 0.0000 0.0000
vn -1.0000 0.0000 -0.0000
vn -1.0000 0.0000 -0.0001
vn -0.0000 -0.8875 -0.4607
vn -0.0000 -0.8368 0.5475
vn -0.0000 -0.1265 0.9920
vn 0.0000 0.9005 -0.4349
vn 0.0000 0.8063 0.5915
vn -0.0000 -0.3322 -0.9432
vn 1.0000 -0.0000 -0.0002
vn 1.0000 -0.0000 -0.0004
vn 1.0000 0.0000 0.0003
vn -1.0000 0.0000 0.0004
vn -1.0000 0.0000 0.0002
vn -1.0000 -0.0000 -0.0003
vn -0.0000 -0.2658 -0.9640
vn -0.0000 -0.2905 0.9569
vn -0.0000 -0.2904 0.9569
vn 0.0000 0.2803 -0.9599
vn 0.0000 0.2804 -0.9599
vn 0.0000 0.2788 0.9604
vn 1.0000 0.0000 0.0002
vn -1.0000 -0.0000 -0.0002
vn -0.0000 -0.0453 0.9990
vn 0.0000 0.0729 -0.9973
vn 1.0000 0.0000 -0.0003
vn -1.0000 -0.0000 0.0003
vn -0.0000 -0.0569 -0.9984
vn 0.0000 0.0845 0.9964
# 34 vertex normals

vt -6.9796 3.4763 0.0000
vt -6.9796 0.0000 0.0000
vt -2.9898 0.0000 0.0000
vt -2.9898 3.4763 0.0000
vt 7.9796 0.0000 0.0000
vt 7.9796 3.4763 0.0000
vt 3.9898 3.4763 0.0000
vt 3.9898 0.0000 0.0000
vt 7.9796 12.2065 0.0000
vt 3.9898 12.2065 0.0000
vt 0.0000 0.0000 0.0000
vt 3.4763 0.0000 0.0000
vt 3.4763 12.2065 0.0000
vt 0.0000 12.2065 0.0000
vt -8.9746 3.4763 0.0000
vt -8.9745 0.0000 0.0000
vt -0.9949 0.0000 0.0000
vt -0.9949 3.4763 0.0000
vt 9.9746 0.0000 0.0000
vt 9.9745 3.4763 0.0000
vt 1.9949 3.4763 0.0000
vt 1.9949 0.0000 0.0000
vt 9.9745 0.0000 0.0000
vt 9.9746 12.2065 0.0000
vt 1.9949 12.2065 0.0000
vt 1.0000 0.0000 0.0000
vt 1.0000 3.4763 0.0000
vt 0.0000 3.4763 0.0000
vt 11.9695 0.0000 0.0000
vt 11.9695 12.2065 0.0000
vt -10.9695 3.4763 0.0000
vt -10.9695 0.0000 0.0000
vt 11.9695 3.4763 0.0000
# 33 texture coords

g Box002
usemtl wire_085028177
s 2
f 1/1/1 2/2/2 3/3/3 4/4/4 
s 4
f 5/5/5 6/6/6 7/7/7 8/8/8 
s 8
f 2/5/9 5/9/9 8/10/10 3/8/10 
s 16
f 9/11/11 10/12/11 11/13/11 12/14/11 
s 32
f 4/5/12 7/9/12 6/10/13 1/8/13 
s 64
f 13/11/14 14/12/14 15/13/14 16/14/14 
s 2
f 17/15/15 18/16/16 2/2/2 1/1/1 
f 19/17/17 20/18/3 4/4/4 3/3/3 
s 4
f 21/19/18 22/20/19 6/6/6 5/5/5 
f 23/21/8 24/22/20 8/8/8 7/7/7 
s 8
f 18/23/21 21/24/21 5/9/9 2/5/9 
f 24/25/22 19/22/23 3/8/10 8/10/10 
s 32
f 20/23/24 23/24/25 7/9/12 4/5/12 
f 22/25/26 17/22/26 1/8/13 6/10/13 
s 2
f 14/26/27 13/27/27 20/18/3 19/17/17 
s 4
f 16/28/28 15/11/28 24/22/20 23/21/8 
s 8
f 15/14/29 14/11/29 19/22/23 24/25/22 
s 32
f 13/29/30 16/30/30 23/24/25 20/23/24 
s 2
f 10/31/31 9/32/31 18/16/16 17/15/15 
s 4
f 12/29/32 11/33/32 22/20/19 21/19/18 
s 8
f 9/29/33 12/30/33 21/24/21 18/23/21 
s 32
f 11/14/34 10/11/34 17/22/26 22/25/26 
# 22 polygons

